<?xml version="1.0" standalone="no"?>
<!DOCTYPE svg PUBLIC "-//W3C//DTD SVG 20010904//EN"
 "http://www.w3.org/TR/2001/REC-SVG-20010904/DTD/svg10.dtd">
<svg version="1.0" xmlns="http://www.w3.org/2000/svg"
 width="512.000000pt" height="512.000000pt" viewBox="0 0 512.000000 512.000000"
 preserveAspectRatio="xMidYMid meet">
<metadata>
Created by potrace 1.14, written by Peter Selinger 2001-2017
</metadata>
<g transform="translate(0.000000,512.000000) scale(0.100000,-0.100000)"
fill="#000000" stroke="none">
<path d="M292 4395 c-110 -25 -205 -103 -259 -214 l-28 -56 -3 -459 c-2 -253
-1 -470 3 -483 3 -13 20 -32 38 -43 31 -19 32 -21 32 -96 1 -71 -1 -77 -25
-92 -53 -33 -50 19 -50 -971 0 -1014 -1 -997 59 -1090 56 -87 136 -143 236
-166 72 -16 4493 -14 4550 3 65 19 146 73 192 129 62 77 80 147 82 310 2 143
-3 164 -47 187 -25 13 -27 18 -25 77 1 35 2 72 2 82 1 9 7 17 15 17 8 0 24 12
35 27 l21 26 -2 1271 -3 1271 -27 55 c-15 31 -47 76 -70 102 -94 100 -156 121
-368 123 -186 1 -218 -5 -233 -46 l-11 -29 -88 0 c-76 0 -87 2 -93 19 -3 10
-15 27 -26 37 -20 18 -77 19 -1941 19 -1309 0 -1934 -3 -1966 -10z"/>
</g>
</svg>
